<svg width="16" height="16" viewBox="0 0 16 16" fill="none" xmlns="http://www.w3.org/2000/svg">
<path d="M3.7823 5.9V2.52727C3.7823 1.68378 4.46609 1 5.30958 1H10.686C11.5295 1 12.2133 1.68378 12.2133 2.52727V5.9" stroke="#191F2D" stroke-linecap="round"/>
<path d="M3.58156 12.2001H2.1764C1.80373 12.2001 1.44632 12.0526 1.1828 11.7901C0.919276 11.5275 0.771233 11.1714 0.771233 10.8001V7.30015C0.771233 6.92884 0.919276 6.57275 1.1828 6.3102C1.44632 6.04765 1.80373 5.90015 2.1764 5.90015H13.4177C13.7904 5.90015 14.1478 6.04765 14.4113 6.3102C14.6748 6.57275 14.8229 6.92884 14.8229 7.30015V10.8001C14.8229 11.1714 14.6748 11.5275 14.4113 11.7901C14.1478 12.0526 13.7904 12.2001 13.4177 12.2001L12.3137 12.2001" stroke="#191F2D" stroke-linecap="round"/>
<path d="M10.686 9.40002H5.30958C4.46609 9.40002 3.7823 10.0838 3.7823 10.9273V13.4727C3.7823 14.3162 4.46609 15 5.30957 15H10.686C11.5295 15 12.2133 14.3162 12.2133 13.4727V10.9273C12.2133 10.0838 11.5295 9.40002 10.686 9.40002Z" stroke="#191F2D" stroke-linecap="round"/>
</svg>
